<svg width="18" height="22" viewBox="0 0 18 22" fill="none" xmlns="http://www.w3.org/2000/svg">
<path d="M16.5 0.5H3C2.60218 0.5 2.22064 0.658035 1.93934 0.93934C1.65804 1.22064 1.5 1.60218 1.5 2V5H0V6.5H1.5V10.25H0V11.75H1.5V15.5H0V17H1.5V20C1.5 20.3978 1.65804 20.7794 1.93934 21.0607C2.22064 21.342 2.60218 21.5 3 21.5H16.5C16.8978 21.5 17.2794 21.342 17.5607 21.0607C17.842 20.7794 18 20.3978 18 20V2C18 1.60218 17.842 1.22064 17.5607 0.93934C17.2794 0.658035 16.8978 0.5 16.5 0.5ZM16.5 20H3V17H4.5V15.5H3V11.75H4.5V10.25H3V6.5H4.5V5H3V2H16.5V20Z" fill="#565656"/>
</svg>
