<svg width="24" height="25" viewBox="0 0 24 25" fill="none" xmlns="http://www.w3.org/2000/svg">
<g clip-path="url(#clip0_110_4411)">
<path d="M10.5 9.5H9V18.5H10.5V9.5Z" fill="#413C3C"/>
<path d="M15 9.5H13.5V18.5H15V9.5Z" fill="#413C3C"/>
<path d="M3 5V6.5H4.5V21.5C4.5 21.8978 4.65804 22.2794 4.93934 22.5607C5.22064 22.842 5.60218 23 6 23H18C18.3978 23 18.7794 22.842 19.0607 22.5607C19.342 22.2794 19.5 21.8978 19.5 21.5V6.5H21V5H3ZM6 21.5V6.5H18V21.5H6Z" fill="#413C3C"/>
<path d="M15 2H9V3.5H15V2Z" fill="#413C3C"/>
</g>
<defs>
<clipPath id="clip0_110_4411">
<rect width="24" height="24" fill="white" transform="translate(0 0.5)"/>
</clipPath>
</defs>
</svg>
