<svg width="24" height="24" viewBox="0 0 24 24" fill="none" xmlns="http://www.w3.org/2000/svg">
<g clip-path="url(#clip0_85_722)">
<rect width="24" height="24" rx="12" fill="#E4E4E4"/>
<path d="M12 5.25C12.5563 5.25 13.1 5.41495 13.5625 5.72399C14.0251 6.03303 14.3855 6.47229 14.5984 6.9862C14.8113 7.50012 14.867 8.06562 14.7585 8.61119C14.6499 9.15676 14.3821 9.6579 13.9887 10.0512C13.5954 10.4446 13.0943 10.7124 12.5487 10.821C12.0031 10.9295 11.4376 10.8738 10.9237 10.6609C10.4098 10.448 9.97054 10.0876 9.66149 9.62504C9.35245 9.16253 9.1875 8.61876 9.1875 8.0625C9.1875 7.31658 9.48382 6.60121 10.0113 6.07376C10.5387 5.54632 11.2541 5.25 12 5.25ZM12 4.125C11.2212 4.125 10.46 4.35593 9.81244 4.78859C9.16493 5.22125 8.66025 5.8362 8.36223 6.55568C8.06421 7.27517 7.98623 8.06687 8.13816 8.83067C8.29009 9.59447 8.6651 10.2961 9.21577 10.8467C9.76644 11.3974 10.468 11.7724 11.2318 11.9243C11.9956 12.0763 12.7873 11.9983 13.5068 11.7003C14.2263 11.4023 14.8413 10.8976 15.2739 10.2501C15.7066 9.60254 15.9375 8.84126 15.9375 8.0625C15.9375 7.01821 15.5227 6.01669 14.7842 5.27827C14.0458 4.53984 13.0443 4.125 12 4.125Z" fill="#413C3C"/>
<path d="M17.625 19.875H16.5V17.0625C16.5 16.6932 16.4273 16.3274 16.2859 15.9862C16.1446 15.645 15.9374 15.3349 15.6762 15.0738C15.4151 14.8126 15.105 14.6054 14.7638 14.4641C14.4226 14.3227 14.0568 14.25 13.6875 14.25H10.3125C9.56658 14.25 8.85121 14.5463 8.32376 15.0738C7.79632 15.6012 7.5 16.3166 7.5 17.0625V19.875H6.375V17.0625C6.375 16.0182 6.78984 15.0167 7.52827 14.2783C8.26669 13.5398 9.26821 13.125 10.3125 13.125H13.6875C14.7318 13.125 15.7333 13.5398 16.4717 14.2783C17.2102 15.0167 17.625 16.0182 17.625 17.0625V19.875Z" fill="#413C3C"/>
</g>
<defs>
<clipPath id="clip0_85_722">
<rect width="24" height="24" rx="12" fill="white"/>
</clipPath>
</defs>
</svg>
